<svg xmlns="http://www.w3.org/2000/svg" xmlns:xlink="http://www.w3.org/1999/xlink" width="500" zoomAndPan="magnify" viewBox="0 0 375 374.999991" height="500" preserveAspectRatio="xMidYMid meet" version="1.0"><defs><g/><clipPath id="e58a6650c6"><path d="M 37.5 169.351562 L 111.75 169.351562 L 111.75 205.351562 L 37.5 205.351562 Z M 37.5 169.351562 " clip-rule="nonzero"/></clipPath></defs><rect x="-37.5" width="450" fill="#ffffff" y="-37.499999" height="449.999989" fill-opacity="1"/><rect x="-37.5" width="450" fill="#ffffff" y="-37.499999" height="449.999989" fill-opacity="1"/><g clip-path="url(#e58a6650c6)"><path fill="#0edc8d" d="M 110.285156 196.011719 C 111.273438 198.019531 111.28125 202.75 111.28125 202.75 C 111.167969 202.828125 111.050781 202.890625 110.933594 202.945312 L 110.214844 199.933594 C 110.214844 199.933594 110.011719 201.929688 110.0625 203.09375 C 108.667969 203.558594 107.851562 202.839844 107.851562 202.839844 C 107.46875 199.105469 107.878906 197.007812 108.214844 195.96875 C 107.96875 195.710938 107.816406 195.375 107.808594 194.992188 C 107.789062 194.367188 108.171875 193.816406 108.714844 193.597656 L 108.625 186.78125 L 99.550781 190.886719 C 98.867188 191.195312 98.085938 190.714844 98.058594 189.960938 L 97.953125 187.269531 C 97.933594 186.921875 97.757812 186.609375 97.472656 186.425781 C 83.261719 177.058594 71.621094 177.777344 64.371094 180.027344 C 56.46875 182.480469 52.007812 187.125 51.820312 187.320312 L 51.8125 187.332031 C 51.617188 187.535156 51.519531 187.800781 51.519531 188.078125 L 51.5625 191.089844 C 51.574219 191.855469 50.808594 192.378906 50.097656 192.085938 L 38.394531 187.285156 C 37.53125 186.929688 37.515625 185.722656 38.359375 185.339844 L 73.59375 169.476562 C 73.859375 169.363281 74.152344 169.351562 74.421875 169.460938 L 110.652344 183.910156 C 111.523438 184.257812 111.546875 185.472656 110.695312 185.863281 L 109.488281 186.40625 L 109.574219 193.535156 C 110.222656 193.667969 110.714844 194.234375 110.730469 194.921875 C 110.75 195.347656 110.570312 195.738281 110.285156 196.011719 Z M 53.304688 188.742188 C 53.253906 188.789062 53.214844 188.859375 53.214844 188.9375 L 53.214844 205.28125 C 53.214844 205.476562 53.429688 205.601562 53.597656 205.496094 C 56.230469 203.886719 72.421875 195.054688 96.085938 205.574219 C 96.253906 205.644531 96.441406 205.53125 96.441406 205.351562 L 96.441406 188.226562 C 96.441406 188.148438 96.40625 188.070312 96.335938 188.023438 C 94.65625 186.832031 73.035156 172.097656 53.304688 188.742188 Z M 53.304688 188.742188 " fill-opacity="1" fill-rule="nonzero"/></g><g fill="#0edc8d" fill-opacity="1"><g transform="translate(116.993836, 205.015927)"><g><path d="M 7.332031 0 L 7.332031 -9.019531 L 12.886719 -9.019531 C 17.179688 -9.019531 20.277344 -11.71875 20.277344 -16.351562 C 20.277344 -21.445312 17.179688 -23.410156 12.886719 -23.410156 L 1.839844 -23.410156 L 1.839844 0 Z M 7.332031 -18.5 L 12.117188 -18.5 C 13.898438 -18.5 14.847656 -17.703125 14.847656 -16.167969 C 14.847656 -14.574219 13.898438 -13.773438 12.117188 -13.773438 L 7.332031 -13.773438 Z M 7.332031 -18.5 "/></g></g></g><g fill="#0edc8d" fill-opacity="1"><g transform="translate(137.946015, 205.015927)"><g><path d="M 16.933594 -10.03125 C 18.992188 -11.199219 20.277344 -13.375 20.277344 -16.351562 C 20.277344 -21.445312 17.179688 -23.410156 12.886719 -23.410156 L 1.839844 -23.410156 L 1.839844 0 L 7.332031 0 L 7.332031 -9.019531 L 11.78125 -9.019531 L 15.1875 0 L 20.984375 0 Z M 12.117188 -18.5 C 13.898438 -18.5 14.847656 -17.703125 14.847656 -16.167969 C 14.847656 -14.574219 13.898438 -13.773438 12.117188 -13.773438 L 7.332031 -13.773438 L 7.332031 -18.5 Z M 12.117188 -18.5 "/></g></g></g><g fill="#0edc8d" fill-opacity="1"><g transform="translate(159.665113, 205.015927)"><g><path d="M 17.824219 0 L 17.824219 -4.910156 L 7.332031 -4.910156 L 7.332031 -9.265625 L 16.8125 -9.265625 L 16.8125 -14.144531 L 7.332031 -14.144531 L 7.332031 -18.5 L 17.824219 -18.5 L 17.824219 -23.410156 L 1.839844 -23.410156 L 1.839844 0 Z M 17.824219 0 "/></g></g></g><g fill="#0edc8d" fill-opacity="1"><g transform="translate(178.807372, 205.015927)"><g><path d="M 8.925781 0 C 16.90625 0 21.292969 -4.171875 21.292969 -11.75 C 21.292969 -19.265625 16.90625 -23.410156 8.925781 -23.410156 L 1.839844 -23.410156 L 1.839844 0 Z M 7.332031 -18.5 L 8.867188 -18.5 C 13.128906 -18.5 15.800781 -16.199219 15.800781 -11.75 C 15.800781 -6.996094 13.375 -4.910156 8.867188 -4.910156 L 7.332031 -4.910156 Z M 7.332031 -18.5 "/></g></g></g><g fill="#0edc8d" fill-opacity="1"><g transform="translate(201.078647, 205.015927)"><g><path d="M 11.566406 0.523438 C 18.777344 0.523438 21.507812 -3.375 21.507812 -8.742188 L 21.507812 -23.410156 L 15.984375 -23.410156 L 15.984375 -8.742188 C 15.984375 -6.351562 15.125 -4.386719 11.566406 -4.386719 C 7.976562 -4.386719 7.117188 -6.351562 7.117188 -8.742188 L 7.117188 -23.410156 L 1.59375 -23.410156 L 1.59375 -8.742188 C 1.59375 -3.375 4.324219 0.523438 11.566406 0.523438 Z M 11.566406 0.523438 "/></g></g></g><g fill="#000000" fill-opacity="1"><g transform="translate(224.216348, 205.015927)"><g><path d="M 16.875 0 L 16.875 -4.910156 L 7.332031 -4.910156 L 7.332031 -23.410156 L 1.839844 -23.410156 L 1.839844 0 Z M 16.875 0 "/></g></g></g><g fill="#000000" fill-opacity="1"><g transform="translate(241.333946, 205.015927)"><g><path d="M 7.332031 0 L 7.332031 -23.410156 L 1.839844 -23.410156 L 1.839844 0 Z M 7.332031 0 "/></g></g></g><g fill="#000000" fill-opacity="1"><g transform="translate(250.536957, 205.015927)"><g><path d="M 13.835938 0 L 21.84375 -23.410156 L 16.015625 -23.410156 L 10.859375 -6.167969 L 5.707031 -23.410156 L -0.121094 -23.410156 L 7.882812 0 Z M 13.835938 0 "/></g></g></g><g fill="#000000" fill-opacity="1"><g transform="translate(272.256055, 205.015927)"><g><path d="M 17.824219 0 L 17.824219 -4.910156 L 7.332031 -4.910156 L 7.332031 -9.265625 L 16.8125 -9.265625 L 16.8125 -14.144531 L 7.332031 -14.144531 L 7.332031 -18.5 L 17.824219 -18.5 L 17.824219 -23.410156 L 1.839844 -23.410156 L 1.839844 0 Z M 17.824219 0 "/></g></g></g></svg>